<?xml version="1.0" encoding="UTF-8" standalone="no"?>
<!DOCTYPE svg PUBLIC "-//W3C//DTD SVG 1.1//EN"
 "http://www.w3.org/Graphics/SVG/1.1/DTD/svg11.dtd">
<!-- Generated by graphviz version 2.38.0 (20140413.2041)
 -->
<!-- Title: models_diagram Pages: 1 -->
<svg width="956pt" height="701pt"
 viewBox="0.00 0.00 956.34 701.00" xmlns="http://www.w3.org/2000/svg" xmlns:xlink="http://www.w3.org/1999/xlink">
<g id="graph0" class="graph" transform="scale(1 1) rotate(0) translate(4 697)">
<title>models_diagram</title>
<polygon fill="none" stroke="none" points="-4,4 -4,-697 952.343,-697 952.343,4 -4,4"/>
<!-- _diagram_info -->
<g id="node1" class="node"><title>_diagram_info</title>
<text text-anchor="start" x="8" y="-581.6" font-family="Times,serif" font-size="13.00">Models diagram</text>
<text text-anchor="start" x="8" y="-567.6" font-family="Times,serif" font-size="13.00">Date: Jul 20 2018 &#45; 14:28</text>
<text text-anchor="start" x="8" y="-553.6" font-family="Times,serif" font-size="13.00">Migration version: 6</text>
<text text-anchor="start" x="8" y="-539.6" font-family="Times,serif" font-size="13.00">Generated by RailRoady 1.5.3</text>
<text text-anchor="start" x="8" y="-525.6" font-family="Times,serif" font-size="13.00">http://railroady.prestonlee.com</text>
</g>
<!-- Post -->
<g id="node2" class="node"><title>Post</title>
<path fill="none" stroke="black" d="M228,-188.5C228,-188.5 450,-188.5 450,-188.5 456,-188.5 462,-194.5 462,-200.5 462,-200.5 462,-372.5 462,-372.5 462,-378.5 456,-384.5 450,-384.5 450,-384.5 228,-384.5 228,-384.5 222,-384.5 216,-378.5 216,-372.5 216,-372.5 216,-200.5 216,-200.5 216,-194.5 222,-188.5 228,-188.5"/>
<text text-anchor="middle" x="339" y="-369.3" font-family="Times,serif" font-size="14.00">Post</text>
<polyline fill="none" stroke="black" points="216,-361.5 462,-361.5 "/>
<text text-anchor="start" x="224" y="-346.3" font-family="Times,serif" font-size="14.00">id :bigint</text>
<text text-anchor="start" x="224" y="-331.3" font-family="Times,serif" font-size="14.00">tittle :character varying</text>
<text text-anchor="start" x="224" y="-316.3" font-family="Times,serif" font-size="14.00">price :double precision</text>
<text text-anchor="start" x="224" y="-301.3" font-family="Times,serif" font-size="14.00">area :double precision</text>
<text text-anchor="start" x="224" y="-286.3" font-family="Times,serif" font-size="14.00">decription :text</text>
<text text-anchor="start" x="224" y="-271.3" font-family="Times,serif" font-size="14.00">date_post :timestamp without time zone</text>
<text text-anchor="start" x="224" y="-256.3" font-family="Times,serif" font-size="14.00">phone_contact_number :character varying</text>
<text text-anchor="start" x="224" y="-241.3" font-family="Times,serif" font-size="14.00">user_id :bigint</text>
<text text-anchor="start" x="224" y="-226.3" font-family="Times,serif" font-size="14.00">type_house_id :bigint</text>
<text text-anchor="start" x="224" y="-211.3" font-family="Times,serif" font-size="14.00">created_at :timestamp without time zone</text>
<text text-anchor="start" x="224" y="-196.3" font-family="Times,serif" font-size="14.00">updated_at :timestamp without time zone</text>
</g>
<!-- Address -->
<g id="node3" class="node"><title>Address</title>
<path fill="none" stroke="black" d="M143,-0.5C143,-0.5 363,-0.5 363,-0.5 369,-0.5 375,-6.5 375,-12.5 375,-12.5 375,-139.5 375,-139.5 375,-145.5 369,-151.5 363,-151.5 363,-151.5 143,-151.5 143,-151.5 137,-151.5 131,-145.5 131,-139.5 131,-139.5 131,-12.5 131,-12.5 131,-6.5 137,-0.5 143,-0.5"/>
<text text-anchor="middle" x="253" y="-136.3" font-family="Times,serif" font-size="14.00">Address</text>
<polyline fill="none" stroke="black" points="131,-128.5 375,-128.5 "/>
<text text-anchor="start" x="139" y="-113.3" font-family="Times,serif" font-size="14.00">id :bigint</text>
<text text-anchor="start" x="139" y="-98.3" font-family="Times,serif" font-size="14.00">city :character varying</text>
<text text-anchor="start" x="139" y="-83.3" font-family="Times,serif" font-size="14.00">district :character varying</text>
<text text-anchor="start" x="139" y="-68.3" font-family="Times,serif" font-size="14.00">street :character varying</text>
<text text-anchor="start" x="139" y="-53.3" font-family="Times,serif" font-size="14.00">house_no :integer</text>
<text text-anchor="start" x="139" y="-38.3" font-family="Times,serif" font-size="14.00">post_id :bigint</text>
<text text-anchor="start" x="139" y="-23.3" font-family="Times,serif" font-size="14.00">created_at :timestamp without time zone</text>
<text text-anchor="start" x="139" y="-8.3" font-family="Times,serif" font-size="14.00">updated_at :timestamp without time zone</text>
</g>
<!-- Post&#45;&gt;Address -->
<g id="edge1" class="edge"><title>Post&#45;&gt;Address</title>
<path fill="none" stroke="#b67492" d="M295.796,-180.755C292.817,-173.534 289.84,-166.315 286.921,-159.239"/>
<ellipse fill="none" stroke="#b67492" cx="297.37" cy="-184.572" rx="4.00002" ry="4.00002"/>
<ellipse fill="#b67492" stroke="#b67492" cx="285.305" cy="-155.32" rx="4.00001" ry="4.00001"/>
</g>
<!-- Image -->
<g id="node8" class="node"><title>Image</title>
<ellipse fill="none" stroke="black" cx="426" cy="-76" rx="33.2948" ry="18"/>
<text text-anchor="middle" x="426" y="-72.3" font-family="Times,serif" font-size="14.00">Image</text>
</g>
<!-- Post&#45;&gt;Image -->
<g id="edge2" class="edge"><title>Post&#45;&gt;Image</title>
<path fill="none" stroke="#93aa06" d="M382.771,-180.6C394.845,-151.666 406.89,-122.798 415.188,-102.913"/>
<ellipse fill="none" stroke="#93aa06" cx="381.111" cy="-184.578" rx="4.00001" ry="4.00001"/>
<polygon fill="#93aa06" stroke="#93aa06" points="415.203,-102.875 423.207,-95.3792 417.129,-98.2607 419.054,-93.6463 419.054,-93.6463 419.054,-93.6463 417.129,-98.2607 414.901,-91.9134 415.203,-102.875 415.203,-102.875"/>
</g>
<!-- TypeHouse -->
<g id="node4" class="node"><title>TypeHouse</title>
<path fill="none" stroke="black" d="M212,-511.5C212,-511.5 432,-511.5 432,-511.5 438,-511.5 444,-517.5 444,-523.5 444,-523.5 444,-590.5 444,-590.5 444,-596.5 438,-602.5 432,-602.5 432,-602.5 212,-602.5 212,-602.5 206,-602.5 200,-596.5 200,-590.5 200,-590.5 200,-523.5 200,-523.5 200,-517.5 206,-511.5 212,-511.5"/>
<text text-anchor="middle" x="322" y="-587.3" font-family="Times,serif" font-size="14.00">TypeHouse</text>
<polyline fill="none" stroke="black" points="200,-579.5 444,-579.5 "/>
<text text-anchor="start" x="208" y="-564.3" font-family="Times,serif" font-size="14.00">id :bigint</text>
<text text-anchor="start" x="208" y="-549.3" font-family="Times,serif" font-size="14.00">type_house :character varying</text>
<text text-anchor="start" x="208" y="-534.3" font-family="Times,serif" font-size="14.00">created_at :timestamp without time zone</text>
<text text-anchor="start" x="208" y="-519.3" font-family="Times,serif" font-size="14.00">updated_at :timestamp without time zone</text>
</g>
<!-- TypeHouse&#45;&gt;Post -->
<g id="edge3" class="edge"><title>TypeHouse&#45;&gt;Post</title>
<path fill="none" stroke="#e4c473" d="M325.354,-503.032C327.306,-472.202 329.838,-432.2 332.191,-395.042"/>
<ellipse fill="none" stroke="#e4c473" cx="325.079" cy="-507.369" rx="4" ry="4"/>
<polygon fill="#e4c473" stroke="#e4c473" points="332.217,-394.627 337.34,-384.932 332.533,-389.637 332.849,-384.647 332.849,-384.647 332.849,-384.647 332.533,-389.637 328.358,-384.363 332.217,-394.627 332.217,-394.627"/>
</g>
<!-- User -->
<g id="node5" class="node"><title>User</title>
<path fill="none" stroke="black" d="M474.5,-421.5C474.5,-421.5 763.5,-421.5 763.5,-421.5 769.5,-421.5 775.5,-427.5 775.5,-433.5 775.5,-433.5 775.5,-680.5 775.5,-680.5 775.5,-686.5 769.5,-692.5 763.5,-692.5 763.5,-692.5 474.5,-692.5 474.5,-692.5 468.5,-692.5 462.5,-686.5 462.5,-680.5 462.5,-680.5 462.5,-433.5 462.5,-433.5 462.5,-427.5 468.5,-421.5 474.5,-421.5"/>
<text text-anchor="middle" x="619" y="-677.3" font-family="Times,serif" font-size="14.00">User</text>
<polyline fill="none" stroke="black" points="462.5,-669.5 775.5,-669.5 "/>
<text text-anchor="start" x="470.5" y="-654.3" font-family="Times,serif" font-size="14.00">id :bigint</text>
<text text-anchor="start" x="470.5" y="-639.3" font-family="Times,serif" font-size="14.00">email :character varying</text>
<text text-anchor="start" x="470.5" y="-624.3" font-family="Times,serif" font-size="14.00">encrypted_password :character varying</text>
<text text-anchor="start" x="470.5" y="-609.3" font-family="Times,serif" font-size="14.00">reset_password_token :character varying</text>
<text text-anchor="start" x="470.5" y="-594.3" font-family="Times,serif" font-size="14.00">reset_password_sent_at :timestamp without time zone</text>
<text text-anchor="start" x="470.5" y="-579.3" font-family="Times,serif" font-size="14.00">remember_created_at :timestamp without time zone</text>
<text text-anchor="start" x="470.5" y="-564.3" font-family="Times,serif" font-size="14.00">sign_in_count :integer</text>
<text text-anchor="start" x="470.5" y="-549.3" font-family="Times,serif" font-size="14.00">current_sign_in_at :timestamp without time zone</text>
<text text-anchor="start" x="470.5" y="-534.3" font-family="Times,serif" font-size="14.00">last_sign_in_at :timestamp without time zone</text>
<text text-anchor="start" x="470.5" y="-519.3" font-family="Times,serif" font-size="14.00">current_sign_in_ip :inet</text>
<text text-anchor="start" x="470.5" y="-504.3" font-family="Times,serif" font-size="14.00">last_sign_in_ip :inet</text>
<text text-anchor="start" x="470.5" y="-489.3" font-family="Times,serif" font-size="14.00">full_name :character varying</text>
<text text-anchor="start" x="470.5" y="-474.3" font-family="Times,serif" font-size="14.00">phone_number :character varying</text>
<text text-anchor="start" x="470.5" y="-459.3" font-family="Times,serif" font-size="14.00">role :integer</text>
<text text-anchor="start" x="470.5" y="-444.3" font-family="Times,serif" font-size="14.00">created_at :timestamp without time zone</text>
<text text-anchor="start" x="470.5" y="-429.3" font-family="Times,serif" font-size="14.00">updated_at :timestamp without time zone</text>
</g>
<!-- User&#45;&gt;Post -->
<g id="edge5" class="edge"><title>User&#45;&gt;Post</title>
<path fill="none" stroke="#8b5a9a" d="M472.516,-415.532C464.064,-407.428 455.644,-399.354 447.38,-391.428"/>
<ellipse fill="none" stroke="#8b5a9a" cx="475.703" cy="-418.588" rx="4.00002" ry="4.00002"/>
<polygon fill="#8b5a9a" stroke="#8b5a9a" points="447.378,-391.426 443.274,-381.257 443.769,-387.966 440.16,-384.505 440.16,-384.505 440.16,-384.505 443.769,-387.966 437.045,-387.753 447.378,-391.426 447.378,-391.426"/>
</g>
<!-- ApiKey -->
<g id="node7" class="node"><title>ApiKey</title>
<path fill="none" stroke="black" d="M509,-218.5C509,-218.5 729,-218.5 729,-218.5 735,-218.5 741,-224.5 741,-230.5 741,-230.5 741,-342.5 741,-342.5 741,-348.5 735,-354.5 729,-354.5 729,-354.5 509,-354.5 509,-354.5 503,-354.5 497,-348.5 497,-342.5 497,-342.5 497,-230.5 497,-230.5 497,-224.5 503,-218.5 509,-218.5"/>
<text text-anchor="middle" x="619" y="-339.3" font-family="Times,serif" font-size="14.00">ApiKey</text>
<polyline fill="none" stroke="black" points="497,-331.5 741,-331.5 "/>
<text text-anchor="start" x="505" y="-316.3" font-family="Times,serif" font-size="14.00">id :bigint</text>
<text text-anchor="start" x="505" y="-301.3" font-family="Times,serif" font-size="14.00">access_token :character varying</text>
<text text-anchor="start" x="505" y="-286.3" font-family="Times,serif" font-size="14.00">active :boolean</text>
<text text-anchor="start" x="505" y="-271.3" font-family="Times,serif" font-size="14.00">expires_at :timestamp without time zone</text>
<text text-anchor="start" x="505" y="-256.3" font-family="Times,serif" font-size="14.00">user_id :bigint</text>
<text text-anchor="start" x="505" y="-241.3" font-family="Times,serif" font-size="14.00">created_at :timestamp without time zone</text>
<text text-anchor="start" x="505" y="-226.3" font-family="Times,serif" font-size="14.00">updated_at :timestamp without time zone</text>
</g>
<!-- User&#45;&gt;ApiKey -->
<g id="edge4" class="edge"><title>User&#45;&gt;ApiKey</title>
<path fill="none" stroke="#a42430" d="M619,-413.22C619,-396.637 619,-380.229 619,-365.012"/>
<ellipse fill="none" stroke="#a42430" cx="619" cy="-417.357" rx="4" ry="4"/>
<polygon fill="#a42430" stroke="#a42430" points="619,-364.681 623.5,-354.681 619,-359.681 619,-354.681 619,-354.681 619,-354.681 619,-359.681 614.5,-354.681 619,-364.681 619,-364.681"/>
</g>
<!-- ApplicationRecord -->
<g id="node6" class="node"><title>ApplicationRecord</title>
<ellipse fill="none" stroke="black" cx="871" cy="-557" rx="77.1866" ry="18"/>
<text text-anchor="middle" x="871" y="-553.3" font-family="Times,serif" font-size="14.00">ApplicationRecord</text>
</g>
</g>
</svg>
