<?xml version="1.0" encoding="UTF-8" standalone="no"?>
<!DOCTYPE svg PUBLIC "-//W3C//DTD SVG 1.1//EN"
 "http://www.w3.org/Graphics/SVG/1.1/DTD/svg11.dtd">
<!-- Generated by graphviz version 2.38.0 (20140413.2041)
 -->
<!-- Title: models_diagram Pages: 1 -->
<svg width="1512pt" height="731pt"
 viewBox="0.00 0.00 1512.34 731.00" xmlns="http://www.w3.org/2000/svg" xmlns:xlink="http://www.w3.org/1999/xlink">
<g id="graph0" class="graph" transform="scale(1 1) rotate(0) translate(4 727)">
<title>models_diagram</title>
<polygon fill="none" stroke="none" points="-4,4 -4,-727 1508.34,-727 1508.34,4 -4,4"/>
<!-- _diagram_info -->
<g id="node1" class="node"><title>_diagram_info</title>
<text text-anchor="start" x="8" y="-604.1" font-family="Times,serif" font-size="13.00">Models diagram</text>
<text text-anchor="start" x="8" y="-590.1" font-family="Times,serif" font-size="13.00">Date: Jul 28 2018 &#45; 13:04</text>
<text text-anchor="start" x="8" y="-576.1" font-family="Times,serif" font-size="13.00">Migration version: 20180727095130</text>
<text text-anchor="start" x="8" y="-562.1" font-family="Times,serif" font-size="13.00">Generated by RailRoady 1.5.3</text>
<text text-anchor="start" x="8" y="-548.1" font-family="Times,serif" font-size="13.00">http://railroady.prestonlee.com</text>
</g>
<!-- Detail -->
<g id="node2" class="node"><title>Detail</title>
<path fill="none" stroke="black" d="M244,-534C244,-534 464,-534 464,-534 470,-534 476,-540 476,-546 476,-546 476,-613 476,-613 476,-619 470,-625 464,-625 464,-625 244,-625 244,-625 238,-625 232,-619 232,-613 232,-613 232,-546 232,-546 232,-540 238,-534 244,-534"/>
<text text-anchor="middle" x="354" y="-609.8" font-family="Times,serif" font-size="14.00">Detail</text>
<polyline fill="none" stroke="black" points="232,-602 476,-602 "/>
<text text-anchor="start" x="240" y="-586.8" font-family="Times,serif" font-size="14.00">id :bigint</text>
<text text-anchor="start" x="240" y="-571.8" font-family="Times,serif" font-size="14.00">name :character varying</text>
<text text-anchor="start" x="240" y="-556.8" font-family="Times,serif" font-size="14.00">created_at :timestamp without time zone</text>
<text text-anchor="start" x="240" y="-541.8" font-family="Times,serif" font-size="14.00">updated_at :timestamp without time zone</text>
</g>
<!-- Post -->
<g id="node3" class="node"><title>Post</title>
<path fill="none" stroke="black" d="M505,-188.5C505,-188.5 727,-188.5 727,-188.5 733,-188.5 739,-194.5 739,-200.5 739,-200.5 739,-387.5 739,-387.5 739,-393.5 733,-399.5 727,-399.5 727,-399.5 505,-399.5 505,-399.5 499,-399.5 493,-393.5 493,-387.5 493,-387.5 493,-200.5 493,-200.5 493,-194.5 499,-188.5 505,-188.5"/>
<text text-anchor="middle" x="616" y="-384.3" font-family="Times,serif" font-size="14.00">Post</text>
<polyline fill="none" stroke="black" points="493,-376.5 739,-376.5 "/>
<text text-anchor="start" x="501" y="-361.3" font-family="Times,serif" font-size="14.00">id :bigint</text>
<text text-anchor="start" x="501" y="-346.3" font-family="Times,serif" font-size="14.00">tittle :character varying</text>
<text text-anchor="start" x="501" y="-331.3" font-family="Times,serif" font-size="14.00">price :double precision</text>
<text text-anchor="start" x="501" y="-316.3" font-family="Times,serif" font-size="14.00">area :double precision</text>
<text text-anchor="start" x="501" y="-301.3" font-family="Times,serif" font-size="14.00">decription :text</text>
<text text-anchor="start" x="501" y="-286.3" font-family="Times,serif" font-size="14.00">date_post :timestamp without time zone</text>
<text text-anchor="start" x="501" y="-271.3" font-family="Times,serif" font-size="14.00">phone_contact_number :character varying</text>
<text text-anchor="start" x="501" y="-256.3" font-family="Times,serif" font-size="14.00">detail_ids :integer</text>
<text text-anchor="start" x="501" y="-241.3" font-family="Times,serif" font-size="14.00">user_id :bigint</text>
<text text-anchor="start" x="501" y="-226.3" font-family="Times,serif" font-size="14.00">type_house_id :bigint</text>
<text text-anchor="start" x="501" y="-211.3" font-family="Times,serif" font-size="14.00">created_at :timestamp without time zone</text>
<text text-anchor="start" x="501" y="-196.3" font-family="Times,serif" font-size="14.00">updated_at :timestamp without time zone</text>
</g>
<!-- Detail&#45;&gt;Post -->
<g id="edge1" class="edge"><title>Detail&#45;&gt;Post</title>
<path fill="none" stroke="#e1292b" d="M401.774,-526.4C426.569,-499.393 457.376,-465.89 485,-436 493.674,-426.614 502.681,-416.885 511.728,-407.125"/>
<polygon fill="#e1292b" stroke="#e1292b" points="401.71,-526.47 391.632,-530.794 398.329,-530.153 394.947,-533.837 394.947,-533.837 394.947,-533.837 398.329,-530.153 398.262,-536.88 401.71,-526.47 401.71,-526.47"/>
<polygon fill="#e1292b" stroke="#e1292b" points="511.849,-406.994 521.948,-402.72 515.249,-403.327 518.648,-399.66 518.648,-399.66 518.648,-399.66 515.249,-403.327 515.348,-396.601 511.849,-406.994 511.849,-406.994"/>
</g>
<!-- Address -->
<g id="node4" class="node"><title>Address</title>
<path fill="none" stroke="black" d="M365,-0.5C365,-0.5 585,-0.5 585,-0.5 591,-0.5 597,-6.5 597,-12.5 597,-12.5 597,-139.5 597,-139.5 597,-145.5 591,-151.5 585,-151.5 585,-151.5 365,-151.5 365,-151.5 359,-151.5 353,-145.5 353,-139.5 353,-139.5 353,-12.5 353,-12.5 353,-6.5 359,-0.5 365,-0.5"/>
<text text-anchor="middle" x="475" y="-136.3" font-family="Times,serif" font-size="14.00">Address</text>
<polyline fill="none" stroke="black" points="353,-128.5 597,-128.5 "/>
<text text-anchor="start" x="361" y="-113.3" font-family="Times,serif" font-size="14.00">id :bigint</text>
<text text-anchor="start" x="361" y="-98.3" font-family="Times,serif" font-size="14.00">city :character varying</text>
<text text-anchor="start" x="361" y="-83.3" font-family="Times,serif" font-size="14.00">district :character varying</text>
<text text-anchor="start" x="361" y="-68.3" font-family="Times,serif" font-size="14.00">street :character varying</text>
<text text-anchor="start" x="361" y="-53.3" font-family="Times,serif" font-size="14.00">house_no :integer</text>
<text text-anchor="start" x="361" y="-38.3" font-family="Times,serif" font-size="14.00">post_id :bigint</text>
<text text-anchor="start" x="361" y="-23.3" font-family="Times,serif" font-size="14.00">created_at :timestamp without time zone</text>
<text text-anchor="start" x="361" y="-8.3" font-family="Times,serif" font-size="14.00">updated_at :timestamp without time zone</text>
</g>
<!-- Post&#45;&gt;Address -->
<g id="edge2" class="edge"><title>Post&#45;&gt;Address</title>
<path fill="none" stroke="#6ac283" d="M543.223,-181.512C538.194,-173.808 533.181,-166.128 528.286,-158.629"/>
<ellipse fill="none" stroke="#6ac283" cx="545.585" cy="-185.13" rx="4.00002" ry="4.00002"/>
<ellipse fill="#6ac283" stroke="#6ac283" cx="526.013" cy="-155.147" rx="4.00002" ry="4.00002"/>
</g>
<!-- Image -->
<g id="node7" class="node"><title>Image</title>
<path fill="none" stroke="black" d="M627,-0.5C627,-0.5 887,-0.5 887,-0.5 893,-0.5 899,-6.5 899,-12.5 899,-12.5 899,-139.5 899,-139.5 899,-145.5 893,-151.5 887,-151.5 887,-151.5 627,-151.5 627,-151.5 621,-151.5 615,-145.5 615,-139.5 615,-139.5 615,-12.5 615,-12.5 615,-6.5 621,-0.5 627,-0.5"/>
<text text-anchor="middle" x="757" y="-136.3" font-family="Times,serif" font-size="14.00">Image</text>
<polyline fill="none" stroke="black" points="615,-128.5 899,-128.5 "/>
<text text-anchor="start" x="623" y="-113.3" font-family="Times,serif" font-size="14.00">id :bigint</text>
<text text-anchor="start" x="623" y="-98.3" font-family="Times,serif" font-size="14.00">image_file_name :character varying</text>
<text text-anchor="start" x="623" y="-83.3" font-family="Times,serif" font-size="14.00">image_content_type :character varying</text>
<text text-anchor="start" x="623" y="-68.3" font-family="Times,serif" font-size="14.00">image_file_size :integer</text>
<text text-anchor="start" x="623" y="-53.3" font-family="Times,serif" font-size="14.00">image_updated_at :timestamp without time zone</text>
<text text-anchor="start" x="623" y="-38.3" font-family="Times,serif" font-size="14.00">post_id :bigint</text>
<text text-anchor="start" x="623" y="-23.3" font-family="Times,serif" font-size="14.00">created_at :timestamp without time zone</text>
<text text-anchor="start" x="623" y="-8.3" font-family="Times,serif" font-size="14.00">updated_at :timestamp without time zone</text>
</g>
<!-- Post&#45;&gt;Image -->
<g id="edge3" class="edge"><title>Post&#45;&gt;Image</title>
<path fill="none" stroke="#393ec6" d="M688.777,-181.512C693.395,-174.437 698,-167.383 702.513,-160.469"/>
<ellipse fill="none" stroke="#393ec6" cx="686.415" cy="-185.13" rx="4.00002" ry="4.00002"/>
<polygon fill="#393ec6" stroke="#393ec6" points="702.708,-160.171 711.942,-154.257 705.441,-155.985 708.174,-151.798 708.174,-151.798 708.174,-151.798 705.441,-155.985 704.406,-149.338 702.708,-160.171 702.708,-160.171"/>
</g>
<!-- City -->
<g id="node5" class="node"><title>City</title>
<path fill="none" stroke="black" d="M1100,-534C1100,-534 1320,-534 1320,-534 1326,-534 1332,-540 1332,-546 1332,-546 1332,-613 1332,-613 1332,-619 1326,-625 1320,-625 1320,-625 1100,-625 1100,-625 1094,-625 1088,-619 1088,-613 1088,-613 1088,-546 1088,-546 1088,-540 1094,-534 1100,-534"/>
<text text-anchor="middle" x="1210" y="-609.8" font-family="Times,serif" font-size="14.00">City</text>
<polyline fill="none" stroke="black" points="1088,-602 1332,-602 "/>
<text text-anchor="start" x="1096" y="-586.8" font-family="Times,serif" font-size="14.00">id :bigint</text>
<text text-anchor="start" x="1096" y="-571.8" font-family="Times,serif" font-size="14.00">name :character varying</text>
<text text-anchor="start" x="1096" y="-556.8" font-family="Times,serif" font-size="14.00">created_at :timestamp without time zone</text>
<text text-anchor="start" x="1096" y="-541.8" font-family="Times,serif" font-size="14.00">updated_at :timestamp without time zone</text>
</g>
<!-- District -->
<g id="node11" class="node"><title>District</title>
<path fill="none" stroke="black" d="M1100,-241C1100,-241 1320,-241 1320,-241 1326,-241 1332,-247 1332,-253 1332,-253 1332,-335 1332,-335 1332,-341 1326,-347 1320,-347 1320,-347 1100,-347 1100,-347 1094,-347 1088,-341 1088,-335 1088,-335 1088,-253 1088,-253 1088,-247 1094,-241 1100,-241"/>
<text text-anchor="middle" x="1210" y="-331.8" font-family="Times,serif" font-size="14.00">District</text>
<polyline fill="none" stroke="black" points="1088,-324 1332,-324 "/>
<text text-anchor="start" x="1096" y="-308.8" font-family="Times,serif" font-size="14.00">id :bigint</text>
<text text-anchor="start" x="1096" y="-293.8" font-family="Times,serif" font-size="14.00">name :character varying</text>
<text text-anchor="start" x="1096" y="-278.8" font-family="Times,serif" font-size="14.00">city_id :bigint</text>
<text text-anchor="start" x="1096" y="-263.8" font-family="Times,serif" font-size="14.00">created_at :timestamp without time zone</text>
<text text-anchor="start" x="1096" y="-248.8" font-family="Times,serif" font-size="14.00">updated_at :timestamp without time zone</text>
</g>
<!-- City&#45;&gt;District -->
<g id="edge4" class="edge"><title>City&#45;&gt;District</title>
<path fill="none" stroke="#c04e45" d="M1210,-525.616C1210,-477.872 1210,-407.583 1210,-357.166"/>
<ellipse fill="none" stroke="#c04e45" cx="1210" cy="-529.891" rx="4" ry="4"/>
<polygon fill="#c04e45" stroke="#c04e45" points="1210,-357.043 1214.5,-347.043 1210,-352.043 1210,-347.043 1210,-347.043 1210,-347.043 1210,-352.043 1205.5,-347.043 1210,-357.043 1210,-357.043"/>
</g>
<!-- TypeHouse -->
<g id="node6" class="node"><title>TypeHouse</title>
<path fill="none" stroke="black" d="M506,-534C506,-534 726,-534 726,-534 732,-534 738,-540 738,-546 738,-546 738,-613 738,-613 738,-619 732,-625 726,-625 726,-625 506,-625 506,-625 500,-625 494,-619 494,-613 494,-613 494,-546 494,-546 494,-540 500,-534 506,-534"/>
<text text-anchor="middle" x="616" y="-609.8" font-family="Times,serif" font-size="14.00">TypeHouse</text>
<polyline fill="none" stroke="black" points="494,-602 738,-602 "/>
<text text-anchor="start" x="502" y="-586.8" font-family="Times,serif" font-size="14.00">id :bigint</text>
<text text-anchor="start" x="502" y="-571.8" font-family="Times,serif" font-size="14.00">type_house :character varying</text>
<text text-anchor="start" x="502" y="-556.8" font-family="Times,serif" font-size="14.00">created_at :timestamp without time zone</text>
<text text-anchor="start" x="502" y="-541.8" font-family="Times,serif" font-size="14.00">updated_at :timestamp without time zone</text>
</g>
<!-- TypeHouse&#45;&gt;Post -->
<g id="edge5" class="edge"><title>TypeHouse&#45;&gt;Post</title>
<path fill="none" stroke="#7c52e9" d="M616,-525.632C616,-493.025 616,-449.899 616,-409.769"/>
<ellipse fill="none" stroke="#7c52e9" cx="616" cy="-529.891" rx="4" ry="4"/>
<polygon fill="#7c52e9" stroke="#7c52e9" points="616,-409.639 620.5,-399.639 616,-404.639 616,-399.639 616,-399.639 616,-399.639 616,-404.639 611.5,-399.639 616,-409.639 616,-409.639"/>
</g>
<!-- User -->
<g id="node8" class="node"><title>User</title>
<path fill="none" stroke="black" d="M768.5,-436.5C768.5,-436.5 1057.5,-436.5 1057.5,-436.5 1063.5,-436.5 1069.5,-442.5 1069.5,-448.5 1069.5,-448.5 1069.5,-710.5 1069.5,-710.5 1069.5,-716.5 1063.5,-722.5 1057.5,-722.5 1057.5,-722.5 768.5,-722.5 768.5,-722.5 762.5,-722.5 756.5,-716.5 756.5,-710.5 756.5,-710.5 756.5,-448.5 756.5,-448.5 756.5,-442.5 762.5,-436.5 768.5,-436.5"/>
<text text-anchor="middle" x="913" y="-707.3" font-family="Times,serif" font-size="14.00">User</text>
<polyline fill="none" stroke="black" points="756.5,-699.5 1069.5,-699.5 "/>
<text text-anchor="start" x="764.5" y="-684.3" font-family="Times,serif" font-size="14.00">id :bigint</text>
<text text-anchor="start" x="764.5" y="-669.3" font-family="Times,serif" font-size="14.00">email :character varying</text>
<text text-anchor="start" x="764.5" y="-654.3" font-family="Times,serif" font-size="14.00">encrypted_password :character varying</text>
<text text-anchor="start" x="764.5" y="-639.3" font-family="Times,serif" font-size="14.00">reset_password_token :character varying</text>
<text text-anchor="start" x="764.5" y="-624.3" font-family="Times,serif" font-size="14.00">reset_password_sent_at :timestamp without time zone</text>
<text text-anchor="start" x="764.5" y="-609.3" font-family="Times,serif" font-size="14.00">remember_created_at :timestamp without time zone</text>
<text text-anchor="start" x="764.5" y="-594.3" font-family="Times,serif" font-size="14.00">sign_in_count :integer</text>
<text text-anchor="start" x="764.5" y="-579.3" font-family="Times,serif" font-size="14.00">current_sign_in_at :timestamp without time zone</text>
<text text-anchor="start" x="764.5" y="-564.3" font-family="Times,serif" font-size="14.00">last_sign_in_at :timestamp without time zone</text>
<text text-anchor="start" x="764.5" y="-549.3" font-family="Times,serif" font-size="14.00">current_sign_in_ip :inet</text>
<text text-anchor="start" x="764.5" y="-534.3" font-family="Times,serif" font-size="14.00">last_sign_in_ip :inet</text>
<text text-anchor="start" x="764.5" y="-519.3" font-family="Times,serif" font-size="14.00">full_name :character varying</text>
<text text-anchor="start" x="764.5" y="-504.3" font-family="Times,serif" font-size="14.00">phone_number :character varying</text>
<text text-anchor="start" x="764.5" y="-489.3" font-family="Times,serif" font-size="14.00">avatar :character varying</text>
<text text-anchor="start" x="764.5" y="-474.3" font-family="Times,serif" font-size="14.00">role :integer</text>
<text text-anchor="start" x="764.5" y="-459.3" font-family="Times,serif" font-size="14.00">created_at :timestamp without time zone</text>
<text text-anchor="start" x="764.5" y="-444.3" font-family="Times,serif" font-size="14.00">updated_at :timestamp without time zone</text>
</g>
<!-- User&#45;&gt;Post -->
<g id="edge7" class="edge"><title>User&#45;&gt;Post</title>
<path fill="none" stroke="#817b7c" d="M758.029,-430.573C749.714,-422.636 741.427,-414.726 733.271,-406.941"/>
<ellipse fill="none" stroke="#817b7c" cx="761.172" cy="-433.573" rx="4.00002" ry="4.00002"/>
<polygon fill="#817b7c" stroke="#817b7c" points="733.055,-406.734 728.928,-396.574 729.438,-403.282 725.821,-399.829 725.821,-399.829 725.821,-399.829 729.438,-403.282 722.714,-403.085 733.055,-406.734 733.055,-406.734"/>
</g>
<!-- ApiKey -->
<g id="node10" class="node"><title>ApiKey</title>
<path fill="none" stroke="black" d="M803,-226C803,-226 1023,-226 1023,-226 1029,-226 1035,-232 1035,-238 1035,-238 1035,-350 1035,-350 1035,-356 1029,-362 1023,-362 1023,-362 803,-362 803,-362 797,-362 791,-356 791,-350 791,-350 791,-238 791,-238 791,-232 797,-226 803,-226"/>
<text text-anchor="middle" x="913" y="-346.8" font-family="Times,serif" font-size="14.00">ApiKey</text>
<polyline fill="none" stroke="black" points="791,-339 1035,-339 "/>
<text text-anchor="start" x="799" y="-323.8" font-family="Times,serif" font-size="14.00">id :bigint</text>
<text text-anchor="start" x="799" y="-308.8" font-family="Times,serif" font-size="14.00">access_token :character varying</text>
<text text-anchor="start" x="799" y="-293.8" font-family="Times,serif" font-size="14.00">active :boolean</text>
<text text-anchor="start" x="799" y="-278.8" font-family="Times,serif" font-size="14.00">expires_at :timestamp without time zone</text>
<text text-anchor="start" x="799" y="-263.8" font-family="Times,serif" font-size="14.00">user_id :bigint</text>
<text text-anchor="start" x="799" y="-248.8" font-family="Times,serif" font-size="14.00">created_at :timestamp without time zone</text>
<text text-anchor="start" x="799" y="-233.8" font-family="Times,serif" font-size="14.00">updated_at :timestamp without time zone</text>
</g>
<!-- User&#45;&gt;ApiKey -->
<g id="edge6" class="edge"><title>User&#45;&gt;ApiKey</title>
<path fill="none" stroke="#77c40d" d="M913,-428.165C913,-408.877 913,-389.803 913,-372.376"/>
<ellipse fill="none" stroke="#77c40d" cx="913" cy="-432.335" rx="4" ry="4"/>
<polygon fill="#77c40d" stroke="#77c40d" points="913,-372.317 917.5,-362.317 913,-367.317 913,-362.317 913,-362.317 913,-362.317 913,-367.317 908.5,-362.317 913,-372.317 913,-372.317"/>
</g>
<!-- ApplicationRecord -->
<g id="node9" class="node"><title>ApplicationRecord</title>
<ellipse fill="none" stroke="black" cx="1427" cy="-579.5" rx="77.1866" ry="18"/>
<text text-anchor="middle" x="1427" y="-575.8" font-family="Times,serif" font-size="14.00">ApplicationRecord</text>
</g>
</g>
</svg>
