<?xml version="1.0" encoding="UTF-8" standalone="no"?>
<!DOCTYPE svg PUBLIC "-//W3C//DTD SVG 1.1//EN"
 "http://www.w3.org/Graphics/SVG/1.1/DTD/svg11.dtd">
<!-- Generated by graphviz version 2.38.0 (20140413.2041)
 -->
<!-- Title: models_diagram Pages: 1 -->
<svg width="763pt" height="230pt"
 viewBox="0.00 0.00 763.34 230.00" xmlns="http://www.w3.org/2000/svg" xmlns:xlink="http://www.w3.org/1999/xlink">
<g id="graph0" class="graph" transform="scale(1 1) rotate(0) translate(4 226)">
<title>models_diagram</title>
<polygon fill="none" stroke="none" points="-4,4 -4,-226 759.343,-226 759.343,4 -4,4"/>
<!-- _diagram_info -->
<g id="node1" class="node"><title>_diagram_info</title>
<text text-anchor="start" x="8" y="-207.6" font-family="Times,serif" font-size="13.00">Models diagram</text>
<text text-anchor="start" x="8" y="-193.6" font-family="Times,serif" font-size="13.00">Date: Jul 28 2018 &#45; 13:05</text>
<text text-anchor="start" x="8" y="-179.6" font-family="Times,serif" font-size="13.00">Migration version: 20180727095130</text>
<text text-anchor="start" x="8" y="-165.6" font-family="Times,serif" font-size="13.00">Generated by RailRoady 1.5.3</text>
<text text-anchor="start" x="8" y="-151.6" font-family="Times,serif" font-size="13.00">http://railroady.prestonlee.com</text>
</g>
<!-- Detail -->
<g id="node2" class="node"><title>Detail</title>
<ellipse fill="none" stroke="black" cx="264" cy="-183" rx="32.4942" ry="18"/>
<text text-anchor="middle" x="264" y="-179.3" font-family="Times,serif" font-size="14.00">Detail</text>
</g>
<!-- Post -->
<g id="node3" class="node"><title>Post</title>
<ellipse fill="none" stroke="black" cx="366" cy="-90" rx="27" ry="18"/>
<text text-anchor="middle" x="366" y="-86.3" font-family="Times,serif" font-size="14.00">Post</text>
</g>
<!-- Detail&#45;&gt;Post -->
<g id="edge1" class="edge"><title>Detail&#45;&gt;Post</title>
<path fill="none" stroke="#768e61" d="M287.998,-160.198C293.874,-154.885 300.154,-149.227 306,-144 318.007,-133.266 331.437,-121.391 342.542,-111.606"/>
<polygon fill="#768e61" stroke="#768e61" points="287.727,-160.444 277.294,-163.822 284.021,-163.8 280.315,-167.157 280.315,-167.157 280.315,-167.157 284.021,-163.8 283.336,-170.492 287.727,-160.444 287.727,-160.444"/>
<polygon fill="#768e61" stroke="#768e61" points="342.657,-111.505 353.137,-108.275 346.41,-108.201 350.164,-104.898 350.164,-104.898 350.164,-104.898 346.41,-108.201 347.19,-101.52 342.657,-111.505 342.657,-111.505"/>
</g>
<!-- Address -->
<g id="node4" class="node"><title>Address</title>
<ellipse fill="none" stroke="black" cx="321" cy="-18" rx="39.7935" ry="18"/>
<text text-anchor="middle" x="321" y="-14.3" font-family="Times,serif" font-size="14.00">Address</text>
</g>
<!-- Post&#45;&gt;Address -->
<g id="edge2" class="edge"><title>Post&#45;&gt;Address</title>
<path fill="none" stroke="#f609ce" d="M351.356,-66.2205C346.48,-58.636 341.042,-50.1759 336.13,-42.5353"/>
<ellipse fill="none" stroke="#f609ce" cx="353.626" cy="-69.7512" rx="4.00002" ry="4.00002"/>
<ellipse fill="#f609ce" stroke="#f609ce" cx="333.961" cy="-39.1621" rx="4.00002" ry="4.00002"/>
</g>
<!-- Image -->
<g id="node7" class="node"><title>Image</title>
<ellipse fill="none" stroke="black" cx="412" cy="-18" rx="33.2948" ry="18"/>
<text text-anchor="middle" x="412" y="-14.3" font-family="Times,serif" font-size="14.00">Image</text>
</g>
<!-- Post&#45;&gt;Image -->
<g id="edge3" class="edge"><title>Post&#45;&gt;Image</title>
<path fill="none" stroke="#b5c4fd" d="M380.846,-66.4085C385.525,-59.2873 390.722,-51.3789 395.509,-44.0943"/>
<ellipse fill="none" stroke="#b5c4fd" cx="378.635" cy="-69.7731" rx="4.00002" ry="4.00002"/>
<polygon fill="#b5c4fd" stroke="#b5c4fd" points="395.792,-43.6641 405.045,-37.7783 398.538,-39.4855 401.284,-35.307 401.284,-35.307 401.284,-35.307 398.538,-39.4855 397.523,-32.8357 395.792,-43.6641 395.792,-43.6641"/>
</g>
<!-- City -->
<g id="node5" class="node"><title>City</title>
<ellipse fill="none" stroke="black" cx="556" cy="-183" rx="27" ry="18"/>
<text text-anchor="middle" x="556" y="-179.3" font-family="Times,serif" font-size="14.00">City</text>
</g>
<!-- District -->
<g id="node11" class="node"><title>District</title>
<ellipse fill="none" stroke="black" cx="556" cy="-90" rx="37.0935" ry="18"/>
<text text-anchor="middle" x="556" y="-86.3" font-family="Times,serif" font-size="14.00">District</text>
</g>
<!-- City&#45;&gt;District -->
<g id="edge4" class="edge"><title>City&#45;&gt;District</title>
<path fill="none" stroke="#261c8b" d="M556,-156.729C556,-144.725 556,-130.362 556,-118.129"/>
<ellipse fill="none" stroke="#261c8b" cx="556" cy="-160.884" rx="4" ry="4"/>
<polygon fill="#261c8b" stroke="#261c8b" points="556,-118.04 560.5,-108.04 556,-113.04 556,-108.04 556,-108.04 556,-108.04 556,-113.04 551.5,-108.04 556,-118.04 556,-118.04"/>
</g>
<!-- TypeHouse -->
<g id="node6" class="node"><title>TypeHouse</title>
<ellipse fill="none" stroke="black" cx="366" cy="-183" rx="51.1914" ry="18"/>
<text text-anchor="middle" x="366" y="-179.3" font-family="Times,serif" font-size="14.00">TypeHouse</text>
</g>
<!-- TypeHouse&#45;&gt;Post -->
<g id="edge5" class="edge"><title>TypeHouse&#45;&gt;Post</title>
<path fill="none" stroke="#3f10a6" d="M366,-156.729C366,-144.725 366,-130.362 366,-118.129"/>
<ellipse fill="none" stroke="#3f10a6" cx="366" cy="-160.884" rx="4" ry="4"/>
<polygon fill="#3f10a6" stroke="#3f10a6" points="366,-118.04 370.5,-108.04 366,-113.04 366,-108.04 366,-108.04 366,-108.04 366,-113.04 361.5,-108.04 366,-118.04 366,-118.04"/>
</g>
<!-- User -->
<g id="node8" class="node"><title>User</title>
<ellipse fill="none" stroke="black" cx="463" cy="-183" rx="27.0966" ry="18"/>
<text text-anchor="middle" x="463" y="-179.3" font-family="Times,serif" font-size="14.00">User</text>
</g>
<!-- User&#45;&gt;Post -->
<g id="edge7" class="edge"><title>User&#45;&gt;Post</title>
<path fill="none" stroke="#c07e7e" d="M443.433,-161.34C437.883,-155.635 431.777,-149.504 426,-144 414.339,-132.892 400.942,-120.981 389.769,-111.27"/>
<ellipse fill="none" stroke="#c07e7e" cx="446.417" cy="-164.433" rx="4.00002" ry="4.00002"/>
<polygon fill="#c07e7e" stroke="#c07e7e" points="389.651,-111.168 385.025,-101.225 385.867,-107.899 382.083,-104.63 382.083,-104.63 382.083,-104.63 385.867,-107.899 379.141,-108.036 389.651,-111.168 389.651,-111.168"/>
</g>
<!-- ApiKey -->
<g id="node10" class="node"><title>ApiKey</title>
<ellipse fill="none" stroke="black" cx="463" cy="-90" rx="38.1938" ry="18"/>
<text text-anchor="middle" x="463" y="-86.3" font-family="Times,serif" font-size="14.00">ApiKey</text>
</g>
<!-- User&#45;&gt;ApiKey -->
<g id="edge6" class="edge"><title>User&#45;&gt;ApiKey</title>
<path fill="none" stroke="#d11ecb" d="M463,-156.729C463,-144.725 463,-130.362 463,-118.129"/>
<ellipse fill="none" stroke="#d11ecb" cx="463" cy="-160.884" rx="4" ry="4"/>
<polygon fill="#d11ecb" stroke="#d11ecb" points="463,-118.04 467.5,-108.04 463,-113.04 463,-108.04 463,-108.04 463,-108.04 463,-113.04 458.5,-108.04 463,-118.04 463,-118.04"/>
</g>
<!-- ApplicationRecord -->
<g id="node9" class="node"><title>ApplicationRecord</title>
<ellipse fill="none" stroke="black" cx="678" cy="-183" rx="77.1866" ry="18"/>
<text text-anchor="middle" x="678" y="-179.3" font-family="Times,serif" font-size="14.00">ApplicationRecord</text>
</g>
</g>
</svg>
