<?xml version="1.0" encoding="UTF-8" standalone="no"?>
<!DOCTYPE svg PUBLIC "-//W3C//DTD SVG 1.1//EN"
 "http://www.w3.org/Graphics/SVG/1.1/DTD/svg11.dtd">
<!-- Generated by graphviz version 2.38.0 (20140413.2041)
 -->
<!-- Title: models_diagram Pages: 1 -->
<svg width="556pt" height="230pt"
 viewBox="0.00 0.00 556.34 230.00" xmlns="http://www.w3.org/2000/svg" xmlns:xlink="http://www.w3.org/1999/xlink">
<g id="graph0" class="graph" transform="scale(1 1) rotate(0) translate(4 226)">
<title>models_diagram</title>
<polygon fill="none" stroke="none" points="-4,4 -4,-226 552.343,-226 552.343,4 -4,4"/>
<!-- _diagram_info -->
<g id="node1" class="node"><title>_diagram_info</title>
<text text-anchor="start" x="8" y="-207.6" font-family="Times,serif" font-size="13.00">Models diagram</text>
<text text-anchor="start" x="8" y="-193.6" font-family="Times,serif" font-size="13.00">Date: Jul 20 2018 &#45; 14:28</text>
<text text-anchor="start" x="8" y="-179.6" font-family="Times,serif" font-size="13.00">Migration version: 6</text>
<text text-anchor="start" x="8" y="-165.6" font-family="Times,serif" font-size="13.00">Generated by RailRoady 1.5.3</text>
<text text-anchor="start" x="8" y="-151.6" font-family="Times,serif" font-size="13.00">http://railroady.prestonlee.com</text>
</g>
<!-- Post -->
<g id="node2" class="node"><title>Post</title>
<ellipse fill="none" stroke="black" cx="258" cy="-90" rx="27" ry="18"/>
<text text-anchor="middle" x="258" y="-86.3" font-family="Times,serif" font-size="14.00">Post</text>
</g>
<!-- Address -->
<g id="node3" class="node"><title>Address</title>
<ellipse fill="none" stroke="black" cx="213" cy="-18" rx="39.7935" ry="18"/>
<text text-anchor="middle" x="213" y="-14.3" font-family="Times,serif" font-size="14.00">Address</text>
</g>
<!-- Post&#45;&gt;Address -->
<g id="edge1" class="edge"><title>Post&#45;&gt;Address</title>
<path fill="none" stroke="#81e542" d="M243.356,-66.2205C238.48,-58.636 233.042,-50.1759 228.13,-42.5353"/>
<ellipse fill="none" stroke="#81e542" cx="245.626" cy="-69.7512" rx="4.00002" ry="4.00002"/>
<ellipse fill="#81e542" stroke="#81e542" cx="225.961" cy="-39.1621" rx="4.00002" ry="4.00002"/>
</g>
<!-- Image -->
<g id="node8" class="node"><title>Image</title>
<ellipse fill="none" stroke="black" cx="304" cy="-18" rx="33.2948" ry="18"/>
<text text-anchor="middle" x="304" y="-14.3" font-family="Times,serif" font-size="14.00">Image</text>
</g>
<!-- Post&#45;&gt;Image -->
<g id="edge2" class="edge"><title>Post&#45;&gt;Image</title>
<path fill="none" stroke="#2d3cae" d="M272.846,-66.4085C277.525,-59.2873 282.722,-51.3789 287.509,-44.0943"/>
<ellipse fill="none" stroke="#2d3cae" cx="270.635" cy="-69.7731" rx="4.00002" ry="4.00002"/>
<polygon fill="#2d3cae" stroke="#2d3cae" points="287.792,-43.6641 297.045,-37.7783 290.538,-39.4855 293.284,-35.307 293.284,-35.307 293.284,-35.307 290.538,-39.4855 289.523,-32.8357 287.792,-43.6641 287.792,-43.6641"/>
</g>
<!-- TypeHouse -->
<g id="node4" class="node"><title>TypeHouse</title>
<ellipse fill="none" stroke="black" cx="251" cy="-183" rx="51.1914" ry="18"/>
<text text-anchor="middle" x="251" y="-179.3" font-family="Times,serif" font-size="14.00">TypeHouse</text>
</g>
<!-- TypeHouse&#45;&gt;Post -->
<g id="edge3" class="edge"><title>TypeHouse&#45;&gt;Post</title>
<path fill="none" stroke="#461611" d="M252.944,-156.729C253.867,-144.725 254.972,-130.362 255.913,-118.129"/>
<ellipse fill="none" stroke="#461611" cx="252.623" cy="-160.895" rx="4" ry="4"/>
<polygon fill="#461611" stroke="#461611" points="255.922,-118.01 261.176,-108.385 256.306,-113.025 256.689,-108.04 256.689,-108.04 256.689,-108.04 256.306,-113.025 252.203,-107.694 255.922,-118.01 255.922,-118.01"/>
</g>
<!-- User -->
<g id="node5" class="node"><title>User</title>
<ellipse fill="none" stroke="black" cx="348" cy="-183" rx="27.0966" ry="18"/>
<text text-anchor="middle" x="348" y="-179.3" font-family="Times,serif" font-size="14.00">User</text>
</g>
<!-- User&#45;&gt;Post -->
<g id="edge5" class="edge"><title>User&#45;&gt;Post</title>
<path fill="none" stroke="#a7f1ba" d="M328.206,-161.571C322.654,-155.868 316.604,-149.68 311,-144 300.759,-133.622 289.33,-122.175 279.714,-112.584"/>
<ellipse fill="none" stroke="#a7f1ba" cx="331.201" cy="-164.652" rx="4.00002" ry="4.00002"/>
<polygon fill="#a7f1ba" stroke="#a7f1ba" points="279.533,-112.403 275.625,-102.157 275.991,-108.874 272.449,-105.345 272.449,-105.345 272.449,-105.345 275.991,-108.874 269.272,-108.533 279.533,-112.403 279.533,-112.403"/>
</g>
<!-- ApiKey -->
<g id="node7" class="node"><title>ApiKey</title>
<ellipse fill="none" stroke="black" cx="348" cy="-90" rx="38.1938" ry="18"/>
<text text-anchor="middle" x="348" y="-86.3" font-family="Times,serif" font-size="14.00">ApiKey</text>
</g>
<!-- User&#45;&gt;ApiKey -->
<g id="edge4" class="edge"><title>User&#45;&gt;ApiKey</title>
<path fill="none" stroke="#75c401" d="M348,-156.729C348,-144.725 348,-130.362 348,-118.129"/>
<ellipse fill="none" stroke="#75c401" cx="348" cy="-160.884" rx="4" ry="4"/>
<polygon fill="#75c401" stroke="#75c401" points="348,-118.04 352.5,-108.04 348,-113.04 348,-108.04 348,-108.04 348,-108.04 348,-113.04 343.5,-108.04 348,-118.04 348,-118.04"/>
</g>
<!-- ApplicationRecord -->
<g id="node6" class="node"><title>ApplicationRecord</title>
<ellipse fill="none" stroke="black" cx="471" cy="-183" rx="77.1866" ry="18"/>
<text text-anchor="middle" x="471" y="-179.3" font-family="Times,serif" font-size="14.00">ApplicationRecord</text>
</g>
</g>
</svg>
